solid OpenSCAD_Model
  facet normal -1 0 0
    outer loop
      vertex -110 -2 0.8
      vertex -110 -2 3.8
      vertex -110 0 0.8
    endloop
  endfacet
  facet normal -1 0 0
    outer loop
      vertex -110 0 0.8
      vertex -110 -2 3.8
      vertex -110 0 3.8
    endloop
  endfacet
  facet normal 0 -1 0
    outer loop
      vertex -110 -2 3.8
      vertex -110 -2 0.8
      vertex -10 -2 0.8
    endloop
  endfacet
  facet normal 0 -1 0
    outer loop
      vertex -10 -2 3.8
      vertex -110 -2 3.8
      vertex -10 -2 0.8
    endloop
  endfacet
  facet normal 0 0 -1
    outer loop
      vertex -110 -2 0.8
      vertex -110 0 0.8
      vertex -10 -2 0.8
    endloop
  endfacet
  facet normal 0 0 -1
    outer loop
      vertex -10 -2 0.8
      vertex -110 0 0.8
      vertex -105.6 0 0.8
    endloop
  endfacet
  facet normal 0 0 -1
    outer loop
      vertex -12.4 0 0.8
      vertex -105.6 0 0.8
      vertex -105.6 110 0.8
    endloop
  endfacet
  facet normal 0 0 -1
    outer loop
      vertex -10 -2 0.8
      vertex -105.6 0 0.8
      vertex -12.4 0 0.8
    endloop
  endfacet
  facet normal 0 0 -1
    outer loop
      vertex -10 0 0.8
      vertex -10 -2 0.8
      vertex -12.4 0 0.8
    endloop
  endfacet
  facet normal 0 0 -1
    outer loop
      vertex -12.4 0 0.8
      vertex -105.6 110 0.8
      vertex -12.4 110 0.8
    endloop
  endfacet
  facet normal 0 1 0
    outer loop
      vertex -105.8 0 3
      vertex -110 0 3.8
      vertex -14.2 0 3
    endloop
  endfacet
  facet normal 0 1 0
    outer loop
      vertex -10 0 3.8
      vertex -10 0 0.8
      vertex -12.4 0 1.2
    endloop
  endfacet
  facet normal 0 1 0
    outer loop
      vertex -10 0 3.8
      vertex -12.4 0 1.2
      vertex -14.2 0 3
    endloop
  endfacet
  facet normal 0 1 0
    outer loop
      vertex -10 0 3.8
      vertex -14.2 0 3
      vertex -110 0 3.8
    endloop
  endfacet
  facet normal 0 1 0
    outer loop
      vertex -110 0 3.8
      vertex -105.8 0 3
      vertex -107.6 0 1.2
    endloop
  endfacet
  facet normal 0 1 0
    outer loop
      vertex -107.6 0 1.2
      vertex -107.6 0 0.8
      vertex -110 0 3.8
    endloop
  endfacet
  facet normal 0 1 0
    outer loop
      vertex -107.6 0 0.8
      vertex -105.6 0 0.8
      vertex -110 0 0.8
    endloop
  endfacet
  facet normal 0 1 0
    outer loop
      vertex -107.6 0 0.8
      vertex -110 0 0.8
      vertex -110 0 3.8
    endloop
  endfacet
  facet normal 0 1 0
    outer loop
      vertex -12.4 0 1.2
      vertex -10 0 0.8
      vertex -12.4 0 0.8
    endloop
  endfacet
  facet normal 0 0 1
    outer loop
      vertex -110 0 3.8
      vertex -110 -2 3.8
      vertex -10 -2 3.8
    endloop
  endfacet
  facet normal 0 0 1
    outer loop
      vertex -10 0 3.8
      vertex -110 0 3.8
      vertex -10 -2 3.8
    endloop
  endfacet
  facet normal 1 0 0
    outer loop
      vertex -10 -2 3.8
      vertex -10 -2 0.8
      vertex -10 0 0.8
    endloop
  endfacet
  facet normal 1 0 0
    outer loop
      vertex -10 0 3.8
      vertex -10 -2 3.8
      vertex -10 0 0.8
    endloop
  endfacet
  facet normal 1 0 0
    outer loop
      vertex -12.4 110 0.8
      vertex -12.4 110 1.2
      vertex -12.4 1 1.2
    endloop
  endfacet
  facet normal 1 0 0
    outer loop
      vertex -12.4 0 1.2
      vertex -12.4 110 0.8
      vertex -12.4 1 1.2
    endloop
  endfacet
  facet normal 1 0 0
    outer loop
      vertex -12.4 0 1.2
      vertex -12.4 0 0.8
      vertex -12.4 110 0.8
    endloop
  endfacet
  facet normal 0 1 0
    outer loop
      vertex -107.6 110 0.8
      vertex -107.6 110 1.2
      vertex -105.6 110 0.8
    endloop
  endfacet
  facet normal 0 1 0
    outer loop
      vertex -105.6 110 0.8
      vertex -107.6 110 1.2
      vertex -105.8 110 3
    endloop
  endfacet
  facet normal 0 1 0
    outer loop
      vertex -105.6 110 0.8
      vertex -105.8 110 3
      vertex -14.2 110 3
    endloop
  endfacet
  facet normal 0 1 0
    outer loop
      vertex -105.6 110 0.8
      vertex -14.2 110 3
      vertex -12.4 110 1.2
    endloop
  endfacet
  facet normal 0 1 0
    outer loop
      vertex -105.6 110 0.8
      vertex -12.4 110 1.2
      vertex -12.4 110 0.8
    endloop
  endfacet
  facet normal -1 0 0
    outer loop
      vertex -105.6 109 0.8
      vertex -105.6 110 0.8
      vertex -105.6 0 0.8
    endloop
  endfacet
  facet normal 0 2.22045e-16 -1
    outer loop
      vertex -105.6 109 0.8
      vertex -105.6 0 0.8
      vertex -107.6 109 0.8
    endloop
  endfacet
  facet normal 0 2.22045e-16 -1
    outer loop
      vertex -107.6 109 0.8
      vertex -105.6 0 0.8
      vertex -107.6 0 0.8
    endloop
  endfacet
  facet normal -1 0 0
    outer loop
      vertex -107.6 1 1.2
      vertex -107.6 110 1.2
      vertex -107.6 110 0.8
    endloop
  endfacet
  facet normal -1 0 0
    outer loop
      vertex -107.6 1 1.2
      vertex -107.6 110 0.8
      vertex -107.6 0 1.2
    endloop
  endfacet
  facet normal -1 0 0
    outer loop
      vertex -107.6 110 0.8
      vertex -107.6 109 0.8
      vertex -107.6 0 1.2
    endloop
  endfacet
  facet normal -1 0 0
    outer loop
      vertex -107.6 109 0.8
      vertex -107.6 0 0.8
      vertex -107.6 0 1.2
    endloop
  endfacet
  facet normal -0.707107 0 0.707107
    outer loop
      vertex -105.8 1 3
      vertex -107.6 1 1.2
      vertex -105.8 0 3
    endloop
  endfacet
  facet normal -0.707107 0 0.707107
    outer loop
      vertex -105.8 0 3
      vertex -107.6 1 1.2
      vertex -107.6 0 1.2
    endloop
  endfacet
  facet normal 0 0 1
    outer loop
      vertex -14.2 110 3
      vertex -105.8 110 3
      vertex -105.8 1 3
    endloop
  endfacet
  facet normal 0 0 1
    outer loop
      vertex -105.8 0 3
      vertex -14.2 110 3
      vertex -105.8 1 3
    endloop
  endfacet
  facet normal 0 0 1
    outer loop
      vertex -105.8 0 3
      vertex -14.2 1 3
      vertex -14.2 110 3
    endloop
  endfacet
  facet normal 0 0 1
    outer loop
      vertex -105.8 0 3
      vertex -14.2 0 3
      vertex -14.2 1 3
    endloop
  endfacet
  facet normal 0.707107 0 0.707107
    outer loop
      vertex -12.4 0 1.2
      vertex -12.4 1 1.2
      vertex -14.2 1 3
    endloop
  endfacet
  facet normal 0.707107 0 0.707107
    outer loop
      vertex -14.2 0 3
      vertex -12.4 0 1.2
      vertex -14.2 1 3
    endloop
  endfacet
  facet normal 0.707107 -1.57009e-16 0.707107
    outer loop
      vertex -12.4 1 1.2
      vertex -12.4 110 1.2
      vertex -14.2 110 3
    endloop
  endfacet
  facet normal 0.707107 -1.57009e-16 0.707107
    outer loop
      vertex -14.2 1 3
      vertex -12.4 1 1.2
      vertex -14.2 110 3
    endloop
  endfacet
  facet normal 0 0 -1
    outer loop
      vertex -105.6 110 0.8
      vertex -105.6 109 0.8
      vertex -107.6 110 0.8
    endloop
  endfacet
  facet normal 0 0 -1
    outer loop
      vertex -107.6 110 0.8
      vertex -105.6 109 0.8
      vertex -107.6 109 0.8
    endloop
  endfacet
  facet normal -0.707107 -1.57009e-16 0.707107
    outer loop
      vertex -105.8 110 3
      vertex -107.6 110 1.2
      vertex -105.8 1 3
    endloop
  endfacet
  facet normal -0.707107 -1.57009e-16 0.707107
    outer loop
      vertex -105.8 1 3
      vertex -107.6 110 1.2
      vertex -107.6 1 1.2
    endloop
  endfacet
endsolid OpenSCAD_Model
